<svg xmlns="http://www.w3.org/2000/svg" viewBox="0 0 64 64" role="img" aria-label="BTC">
  <circle cx="32" cy="32" r="32" fill="#f7931a"/>
  <path fill="#fff" d="M38.6 18.7c4 .9 6.5 3 6 6.4-.3 2.5-1.8 4.1-4.1 4.8 3.2 1.1 4.9 3.1 4.4 6.5-.7 4.2-4 6.2-9 6.4l-1.1 5.1-3.1-.7 1-5h-2.5l-1.1 4.8-3.1-.7 1-4.9-6.3-1.5.8-3.7 2.4.6c1 .2 1.5-.1 1.8-1.1l2.8-12.8c.2-1-.1-1.5-1.1-1.7l-2.4-.5.8-3.7 6.3 1.4 1-4.7 3.1.7-1 4.6c.8.2 1.6.3 2.4.5l1-4.7 3.1.7-1.1 5.2Zm-7.5 17.8 3 .7c2.7.6 5.5.4 6-2.2.6-2.7-2-3.6-4.7-4.2l-3-.7-1.3 6.4Zm2.1-9.5 2.7.6c2.3.5 4.7.3 5.2-2 .5-2.4-1.7-3.2-4.1-3.7l-2.7-.6-1.1 5.7Z"/>
</svg>
