<svg xmlns="http://www.w3.org/2000/svg" viewBox="0 0 64 64" role="img" aria-label="SOL">
  <circle cx="32" cy="32" r="32" fill="#151515"/>
  <path fill="#14f195" d="M18.6 20.2a2 2 0 0 1 1.4-.6h29.3a1 1 0 0 1 .7 1.8l-5.8 5.2a2 2 0 0 1-1.4.5H13.5a1 1 0 0 1-.7-1.7l5.8-5.2Z"/>
  <path fill="#80ecff" d="M44.2 29.4a2 2 0 0 0-1.4-.5H13.5a1 1 0 0 0-.7 1.7l5.8 5.2a2 2 0 0 0 1.4.6h29.3a1 1 0 0 0 .7-1.8l-5.8-5.2Z"/>
  <path fill="#dc1fff" d="M18.6 38.6A2 2 0 0 1 20 38h29.3a1 1 0 0 1 .7 1.8L44.2 45a2 2 0 0 1-1.4.5H13.5a1 1 0 0 1-.7-1.7l5.8-5.2Z"/>
</svg>
