<svg xmlns="http://www.w3.org/2000/svg" viewBox="0 0 64 64" role="img" aria-label="USDC">
  <circle cx="32" cy="32" r="32" fill="#2775ca"/>
  <path fill="#fff" d="M32 13.5a18.5 18.5 0 1 0 0 37 18.5 18.5 0 0 0 0-37Zm0 4a14.5 14.5 0 1 1 0 29 14.5 14.5 0 0 1 0-29Z"/>
  <path fill="#fff" d="M33.8 22.4v-3h-3.6v3c-4 .5-6.5 2.8-6.5 6.1 0 3.5 2.4 5 7.4 5.8 3.1.5 4.1 1.2 4.1 2.8 0 1.7-1.5 2.7-3.9 2.7-2.5 0-4.4-.8-6.4-2.3l-2.1 3.2c1.8 1.5 4.4 2.6 7.4 2.9v3h3.6v-3c4.1-.6 6.7-3 6.7-6.6 0-3.4-2-5.2-7.2-6-3.4-.6-4.3-1.2-4.3-2.7 0-1.4 1.2-2.4 3.4-2.4 2 0 3.6.6 5.2 1.8l2-3.1c-1.5-1.2-3.5-2-5.8-2.2Z"/>
</svg>
